<mxfile host="app.diagrams.net" modified="2023-12-16T11:26:17.912Z" agent="Mozilla/5.0 (Windows NT 10.0; Win64; x64) AppleWebKit/537.36 (KHTML, like Gecko) Chrome/120.0.0.0 Safari/537.36 Edg/120.0.0.0" etag="iGSFLoFjY3IjpFbikgUd" version="22.1.11" type="github">
  <diagram id="C5RBs43oDa-KdzZeNtuy" name="Page-1">
    <mxGraphModel dx="1146" dy="729" grid="1" gridSize="10" guides="1" tooltips="1" connect="1" arrows="1" fold="1" page="1" pageScale="1" pageWidth="827" pageHeight="1169" math="0" shadow="0">
      <root>
        <mxCell id="WIyWlLk6GJQsqaUBKTNV-0" />
        <mxCell id="WIyWlLk6GJQsqaUBKTNV-1" parent="WIyWlLk6GJQsqaUBKTNV-0" />
        <mxCell id="4oR_4h1B85z0OFzcvhkp-0" value="MainProc" style="rounded=1;whiteSpace=wrap;html=1;" vertex="1" parent="WIyWlLk6GJQsqaUBKTNV-1">
          <mxGeometry x="240" y="260" width="120" height="60" as="geometry" />
        </mxCell>
        <mxCell id="4oR_4h1B85z0OFzcvhkp-1" value="DataEditProc&lt;br&gt;Freeeのデータを元に、工数入力、納入報告書へ転記する。" style="rounded=1;whiteSpace=wrap;html=1;" vertex="1" parent="WIyWlLk6GJQsqaUBKTNV-1">
          <mxGeometry x="310" y="1040" width="120" height="60" as="geometry" />
        </mxCell>
        <mxCell id="4oR_4h1B85z0OFzcvhkp-2" value="workdayProc&lt;div&gt;&lt;br&gt;&lt;/div&gt;&lt;div&gt;&#39;勤務日の処理を行う&lt;/div&gt;" style="rounded=1;whiteSpace=wrap;html=1;" vertex="1" parent="WIyWlLk6GJQsqaUBKTNV-1">
          <mxGeometry x="620" y="585" width="120" height="60" as="geometry" />
        </mxCell>
        <mxCell id="4oR_4h1B85z0OFzcvhkp-3" value="getOffTime&lt;br&gt;休憩時間の処理" style="rounded=1;whiteSpace=wrap;html=1;" vertex="1" parent="WIyWlLk6GJQsqaUBKTNV-1">
          <mxGeometry x="600" y="645" width="120" height="60" as="geometry" />
        </mxCell>
        <mxCell id="4oR_4h1B85z0OFzcvhkp-4" value="BreaktimeCheck&lt;br&gt;&#39;休憩時間のチェックを行う" style="rounded=1;whiteSpace=wrap;html=1;" vertex="1" parent="WIyWlLk6GJQsqaUBKTNV-1">
          <mxGeometry x="600" y="510" width="120" height="60" as="geometry" />
        </mxCell>
        <mxCell id="4oR_4h1B85z0OFzcvhkp-5" value="setReportWorkData&lt;br&gt;&#39; 「：」で時間文字列を分割し、納入報告書の指定位置にセットする" style="rounded=1;whiteSpace=wrap;html=1;" vertex="1" parent="WIyWlLk6GJQsqaUBKTNV-1">
          <mxGeometry x="500" y="570" width="120" height="60" as="geometry" />
        </mxCell>
        <mxCell id="4oR_4h1B85z0OFzcvhkp-7" value="getWbAndWsFromFname&lt;br&gt;ファイル名からworkbookとwooksheetを取得する" style="rounded=1;whiteSpace=wrap;html=1;" vertex="1" parent="WIyWlLk6GJQsqaUBKTNV-1">
          <mxGeometry x="210" y="555" width="120" height="60" as="geometry" />
        </mxCell>
        <mxCell id="4oR_4h1B85z0OFzcvhkp-9" value="getTimeStr&lt;br&gt;Freeeの出退勤時間文字列から、時刻だけ取得する" style="rounded=1;whiteSpace=wrap;html=1;" vertex="1" parent="WIyWlLk6GJQsqaUBKTNV-1">
          <mxGeometry x="620" y="850" width="120" height="60" as="geometry" />
        </mxCell>
        <mxCell id="4oR_4h1B85z0OFzcvhkp-10" value="getMemberName&lt;br&gt;&amp;nbsp;Freeeの勤怠（名前の入った行）から名前を取得する" style="rounded=1;whiteSpace=wrap;html=1;" vertex="1" parent="WIyWlLk6GJQsqaUBKTNV-1">
          <mxGeometry x="570" y="740" width="120" height="60" as="geometry" />
        </mxCell>
        <mxCell id="4oR_4h1B85z0OFzcvhkp-11" value="getSchedule&lt;br&gt;Freeeの勤怠からスケジュールの設定を取得する" style="rounded=1;whiteSpace=wrap;html=1;" vertex="1" parent="WIyWlLk6GJQsqaUBKTNV-1">
          <mxGeometry x="660" y="750" width="120" height="60" as="geometry" />
        </mxCell>
        <mxCell id="4oR_4h1B85z0OFzcvhkp-12" value="getlineIndexFromString&lt;br&gt;指定文字列の行を取得する" style="rounded=1;whiteSpace=wrap;html=1;" vertex="1" parent="WIyWlLk6GJQsqaUBKTNV-1">
          <mxGeometry x="340" y="930" width="120" height="60" as="geometry" />
        </mxCell>
        <mxCell id="4oR_4h1B85z0OFzcvhkp-13" value="getlineIndexFromStringSpaceCut&lt;br&gt;strで指定する社員名を検索する&lt;br&gt;" style="rounded=1;whiteSpace=wrap;html=1;" vertex="1" parent="WIyWlLk6GJQsqaUBKTNV-1">
          <mxGeometry x="380" y="860" width="120" height="60" as="geometry" />
        </mxCell>
      </root>
    </mxGraphModel>
  </diagram>
</mxfile>
